<?xml version="1.0" encoding="UTF-8" standalone="no"?>
<svg xmlns="http://www.w3.org/2000/svg" xml:space="preserve" viewBox="0 0 47.5 47.5">
  <defs>
    <clipPath id="a">
      <path d="M0 38h38V0H0v38z"/>
    </clipPath>
  </defs>
  <g clip-path="url(#a)" transform="matrix(1.25 0 0 -1.25 0 47.5)">
    <path fill="#ffac33" d="M36.3369 13.4512c-1.046-6.271-7.722-10.451-17.245-10.451s-16.198 4.18-17.243 10.451c-.247 1.479.156 8.12 1.054 9.406 2.559 3.663 3.474-10.365 16.189-10.365 13.848 0 13.641 14.028 16.199 10.365.899-1.286 1.292-7.927 1.046-9.406"/>
    <path fill="#8a4b38" d="M19.0923 17.6309c-3.174 0-5.748.702-5.748 1.568 0 .866 2.574 1.567 5.748 1.567 3.173 0 5.748-.701 5.748-1.567s-2.575-1.568-5.748-1.568m0 13.375c-9.331 0-16.895-4.584-16.895-10.24 0-5.655 7.564-10.239 16.895-10.239 9.33 0 16.895 4.584 16.895 10.239 0 5.656-7.565 10.24-16.895 10.24"/>
    <path fill="#8a4b38" d="M2.7197 22.3774c-.653-1.045-.92-5.494.479-7.577 2.134-3.179 3.178-1.567 4.746-2.047 2.335-.714 2.508-2.559 4.355-3.483 2.09-1.045 3.305-.741 6.27 0 4.181 1.045 6.837-1.088 9.405 0 2.106.893 3.311 4.137 4.486 4.528 3.728 1.243 4.515 7.124 1.741 9.537-.87-1.829-5.137-8.404-7.88-8.709-2.745-.305-10.974-1-14.457.784-3.484 1.785-7.011 4.006-7.447 4.615-.435.61-1.698 2.352-1.698 2.352"/>
    <path fill="#f4900c" d="M19.0923 23.1177c-3.752 0-6.793-1.228-6.793-2.743 0-.59.463-1.133 1.245-1.58-.126.13-.2.264-.2.404 0 .866 2.574 1.567 5.748 1.567 3.173 0 5.748-.701 5.748-1.567 0-.14-.074-.274-.201-.404.783.447 1.246.99 1.246 1.58 0 1.515-3.042 2.743-6.793 2.743"/>
    <path fill="#f4abba" d="M5.4199 18.8496c-.375 0-.737.203-.925.557-.27.51-.075 1.143.436 1.412l2.308 1.22c.509.272 1.142.076 1.412-.435.27-.51.075-1.143-.436-1.412l-2.308-1.22c-.155-.083-.322-.122-.487-.122m11.8872-7.7939c-.41 0-.799.242-.966.646l-.74 1.786c-.221.533.033 1.144.566 1.365.534.22 1.144-.032 1.365-.567l.74-1.786c.221-.533-.032-1.144-.566-1.365-.13-.054-.266-.079-.399-.079"/>
    <path fill="#55acee" d="M29.1514 15.2363c-.181 0-.364.047-.53.146-.497.292-.662.934-.368 1.43l1.131 1.916c.293.496.938.661 1.431.368.497-.294.662-.934.368-1.431l-1.132-1.915c-.194-.33-.543-.514-.9-.514"/>
    <path fill="#f4abba" d="M30.8926 23c-.56 0-1.023.481-1.043 1.046-.02.576.431 1.079 1.007 1.1l1.218.052c.587.007 1.061-.427 1.081-1.004.02-.576-.431-1.095-1.007-1.116L30.9306 23h-.038zM20.792 27.1235c-.444 0-.855.285-.997.73-.173.551.132 1.138.682 1.312l.826.261c.555.175 1.137-.131 1.311-.681.175-.551-.131-1.138-.68-1.312l-.827-.261c-.105-.033-.211-.049-.315-.049"/>
    <path fill="#88c9f9" d="M14.9976 25.4258c-.157 0-.316.036-.466.11l-.784.392c-.516.258-.726.886-.468 1.402.258.516.886.726 1.403.468l.783-.392c.516-.258.726-.885.468-1.402-.183-.366-.552-.578-.936-.578m9.102-13.2793c-.156 0-.315.035-.465.109l-.784.391c-.517.258-.727.885-.47 1.401.257.518.884.727 1.402.47l.784-.391c.516-.257.726-.884.47-1.401-.183-.367-.553-.579-.937-.579"/>
    <path fill="#55acee" d="M10.4263 14.4521c-.138 0-.277.026-.412.085-.53.227-.775.842-.548 1.372l.392.914c.228.529.843.779 1.373.548.53-.228.776-.842.548-1.372l-.392-.914c-.17-.396-.556-.633-.961-.633m15.5913 9.8848c-.403 0-.787.234-.958.626-.231.529.01 1.145.538 1.377l.696.305c.531.232 1.146-.01 1.376-.539.232-.529-.009-1.145-.538-1.376l-.696-.305c-.137-.06-.278-.088-.418-.088m-16.9829.0435c-.078 0-.157.009-.235.027l-.566.13c-.563.13-.914.691-.784 1.253.129.563.691.913 1.252.784l.566-.13c.563-.13.914-.691.785-1.253-.112-.484-.542-.811-1.018-.811"/>
  </g>
</svg>