<?xml version="1.0" encoding="UTF-8" standalone="no"?>
<svg xmlns="http://www.w3.org/2000/svg" xml:space="preserve" viewBox="0 0 47.5 47.5">
  <defs>
    <clipPath id="a">
      <path d="M0 38h38V0H0v38z"/>
    </clipPath>
    <clipPath id="b">
      <path d="m23.795 8.428.399-3.055c.531-4.074 5.628-4.3 6.248-2.126l.933 4.042 4.041.932c2.173.621 1.949 5.718-2.125 6.25l-3.055.398c-.324.042-.641.063-.949.063-3.564 0-5.981-2.755-5.492-6.504"/>
    </clipPath>
    <clipPath id="c">
      <path d="m8.051 35.588-.935-4.041-4.041-.934c-2.174-.62-1.948-5.716 2.126-6.248l3.055-.399c4.074-.531 6.973 2.367 6.441 6.441l-.399 3.055c-.316 2.429-2.256 3.49-3.902 3.49-1.115 0-2.095-.486-2.345-1.364"/>
    </clipPath>
    <clipPath id="d">
      <path d="M0 38h38V0H0v38z"/>
    </clipPath>
    <clipPath id="e">
      <path d="M12.246 27.21c-4.159-4.161-4.158-10.905 0-15.064 4.161-4.159 10.905-4.159 15.064 0 4.159 4.159 4.159 10.903 0 15.064-2.08 2.079-4.806 3.119-7.532 3.119s-5.452-1.04-7.532-3.119"/>
    </clipPath>
  </defs>
  <g transform="matrix(1.25 0 0 -1.25 0 47.5)">
    <g clip-path="url(#a)">
      <path fill="#dd2e44" d="M14.2983 33.4624c-.531 4.075-5.627 4.299-6.248 2.125l-.934-4.041-4.041-.933c-2.174-.621-1.949-5.717 2.126-6.248l3.054-.399c4.074-.531 6.973 2.367 6.441 6.441l-.398 3.055zM33.291 14.4707c4.074-.531 4.299-5.629 2.125-6.249l-4.041-.933-.934-4.042c-.62-2.173-5.716-1.948-6.248 2.126l-.398 3.055c-.531 4.074 2.367 6.973 6.441 6.441l3.055-.398z"/>
    </g>
    <g clip-path="url(#b)">
      <path fill="#be1931" d="M22.5537 16.9023c-2.846-2.846-3.734-6.572-1.981-8.324 1.75-1.751 5.477-.864 8.323 1.982s3.733 6.573 1.982 8.324c-1.752 1.752-5.478.864-8.324-1.982"/>
    </g>
    <g clip-path="url(#c)">
      <path fill="#be1931" d="M10.6616 28.7944c-2.846-2.846-3.733-6.573-1.982-8.324 1.752-1.752 5.478-.864 8.324 1.982 2.847 2.846 3.734 6.572 1.982 8.324-1.751 1.751-5.478.864-8.324-1.982"/>
    </g>
    <g clip-path="url(#d)">
      <path fill="#dd2e44" d="M27.3096 12.1465c-4.159-4.16-10.903-4.16-15.063 0-4.159 4.159-4.159 10.903 0 15.063 4.16 4.159 10.904 4.159 15.063 0 4.16-4.16 4.16-10.904 0-15.063"/>
    </g>
    <g clip-path="url(#e)">
      <path fill="#f5f8fa" d="M19.7085 19.9585c-4.184-2.535-11.269-3.17-12.486 1.679-1.162-2.766-1.21-5.46.246-7.156 1.457-1.697 8.22-1.511 12.24 5.477"/>
      <path fill="#f5f8fa" d="M19.75 20c.643-4.85-2.532-12.044-7.461-11.212 2.066-2.175 4.514-3.3 6.652-2.646 2.14.653 5.596 7.372.809 13.858"/>
      <path fill="#f5f8fa" d="M19.75 20c4.65-.867 8.234-5.483 6.392-10.132 2.557 1.568 5.114 2.564 4.921 4.791-.192 2.227-3.969 8.669-11.313 5.341"/>
      <path fill="#f5f8fa" d="M19.75 20c1.541 3.333 8.285 6.246 12.168 3.096-.73 2.91-.734 5.42-2.918 5.904-2.183.484-10.226-.997-9.25-9"/>
      <path fill="#f5f8fa" d="M19.7915 19.9585c-3.875 2.042-5.792 8.042-1.792 11.042-3 0-6 0-7-2s.792-8.042 8.792-9.042"/>
      <path fill="none" stroke="#dd2e44" stroke-miterlimit="10" stroke-width="3" d="M27.3096 12.1465c-4.159-4.16-10.903-4.16-15.063 0-4.159 4.159-4.159 10.903 0 15.063 4.16 4.159 10.904 4.159 15.063 0 4.16-4.16 4.16-10.904 0-15.063z"/>
    </g>
  </g>
</svg>