<?xml version="1.0" encoding="UTF-8" standalone="no"?>
<svg xmlns="http://www.w3.org/2000/svg" xml:space="preserve" viewBox="0 0 47.5 47.5">
  <defs>
    <clipPath id="a">
      <path d="M0 38h38V0H0v38z"/>
    </clipPath>
  </defs>
  <g clip-path="url(#a)" transform="matrix(1.25 0 0 -1.25 0 47.5)">
    <path fill="#a6d388" d="M8.6812 27.9033c1.587 3.151 7.698 1.916 11.958-2.171 2.698-2.586 8.056-1.498 11.499-4.804 3.493-3.354 3.258-9.361-3.053-15.767-5.085-5.161-12.085-5.161-16.25-1.545-4.388 3.81-2.475 8.61-4.411 13.585-1.937 4.976-4.324 10.424.257 10.702"/>
    <path fill="#662113" d="M9.1782 27.4658c-.43-.448-1.114-.489-1.527-.093-3.208 3.079-3.918 7.545-3.946 7.776-.074.587.348 1.157.938 1.278.593.121 1.132-.256 1.205-.841.006-.05.658-3.997 3.36-6.591.413-.397.4-1.081-.03-1.529"/>
  </g>
</svg>